<?xml version="1.0" encoding="UTF-8"?>
<svg id="_レイヤー_2" data-name="レイヤー 2" xmlns="http://www.w3.org/2000/svg" viewBox="0 0 709.32 83.04">
  <defs>
    <style>
      .cls-1 {
        fill: #000;
        stroke-width: 0px;
      }
    </style>
  </defs>
  <g id="_レイヤー_1-2" data-name="レイヤー 1">
    <g>
      <g>
        <path class="cls-1" d="M60.32,16.04l15,15-11,11-14-17s9.42-8.83,10-9Z"/>
        <path class="cls-1" d="M36.32,34.04v-4h8s-.13-15.93,0-16h-8v-6h-17v6l-13,1v15h14v6s-1.7.95-2,1c-4.81.86-11.16,6.28-12,7C1.45,48.2-.91,56.06.32,63.04c.3,1.69,1.53,8.67,8,13,5.05,3.38,10.27,3.12,12,3,5.45-.36,14.16-3.08,16-9v-17c.1-.62.15-2,1-2,2,0,8,3,11,7,3.47,4.63,4.21,7.15,3,12-1,4-3.52,6.18-3,7l14,6c6.56-2.11,9.01-16.95,5-28-.6-1.64-4.28-9.86-12-15-3-2-6.16-3.87-10-5-3.26-.96-7.03-.59-9-1ZM20.32,61.04c-.32.45-1.48,2.11-3,2-1.65-.12-2.9-2.26-3-4-.19-3.47,4.16-6.8,6-6v8Z"/>
      </g>
      <g>
        <path class="cls-1" d="M122.32,1.04c-5,12-7.47,35.79,0,55,7,18,14,21,31,27l7-19c-6-4-13.61-4.77-18-13-8-15-2-34,0-46l-20-4Z"/>
        <polygon class="cls-1" points="147.32 11.04 150.32 22.04 159.32 21.04 157.32 11.04 147.32 11.04"/>
        <polygon class="cls-1" points="160.32 15.04 169.32 25.04 176.32 18.04 168.32 10.04 160.32 15.04"/>
      </g>
      <path class="cls-1" d="M237.32,5.04l-27,18,9,15,19-8,16,2-6,9-12-6-11,10c1,0,11,9,11,9l-19,16,11,11c10.01.47,20-13,24-16l9,6,13-13-8-7c4-5,8.01-9.04,12-22,1.93-6.27.75-8.84,0-10-1.49-2.29-4.14-3.26-8-4l-28-2-5-8Z"/>
      <path class="cls-1" d="M371.32,4.04l-59,29,6,15,25-7v40h20v-42s-16.42.13-16,0c20-6,35-16,35-16l-11-19Z"/>
      <path class="cls-1" d="M485.32.04c-7.12.57-12.22,4.68-13,10-.59,4.01,0,7,2,11l-26,7V9.04h-20s-1,53,0,58c.58,2.91,2.94,6.79,9,10,3.19,1.69,46,1,45,1v-17l-31.04.17c-1.64-.1-2.91-1.49-2.84-3.14l-.11-25.04c1.4.01,6,12,6,12,14,0,30-8,30-8,0,0-6.23-13.23-5-12,2,2,3.37,1.93,7,2,5.32.1,13.31-5.56,13-14-.27-7.3-6.64-13.59-14-13ZM484.32,19.04c-2.19-.53-3.81-2.7-4-5-.22-2.63,1.44-5.32,4-6,3.26-.87,6.75,1.84,7,5,.29,3.58-3.66,6.8-7,6Z"/>
      <g>
        <path class="cls-1" d="M541.32,11.04s11,4,20,15l-17,13-17-18,14-10Z"/>
        <path class="cls-1" d="M589.32,35.04s-38,22-54,27l10,19c24.42-10.79,35-12,53-29l-9-17Z"/>
      </g>
      <g>
        <path class="cls-1" d="M659.32,6.04l-27,15,9,17c10-1,16-6,21-7l12,1c-7,17-32,33-36,37l11,12c24-13,51-39,51-57,0-3.48-3.54-6.26-7-8l-30-2-4-8Z"/>
        <polygon class="cls-1" points="682.32 2.04 685.32 12.04 694.32 11.04 691.32 1.04 682.32 2.04"/>
        <polygon class="cls-1" points="695.32 6.04 702.32 13.04 709.32 7.04 701.32 1.04 695.32 6.04"/>
      </g>
    </g>
  </g>
</svg>