<?xml version="1.0" encoding="UTF-8"?>
<svg id="_レイヤー_2" data-name="レイヤー 2" xmlns="http://www.w3.org/2000/svg" viewBox="0 0 144.85 45.68">
  <defs>
    <style>
      .cls-1 {
        fill: #000;
        stroke-width: 0px;
      }
    </style>
  </defs>
  <g id="_レイヤー_1-2" data-name="レイヤー 1">
    <g>
      <path class="cls-1" d="M2.85,6.74c-1.11.03-6.84,17.1,2,29,9.38,12.64,28.14,10.03,35,9,3.9-.58,19.13-2.68,28-15,2.34-3.25,6.41-8.9,5-16-1.11-5.58-5.14-11.17-11-13-6.35-1.99-12.77,4.02-22,12-9.86,8.53-11.54,13.14-18,14-4.64.62-9.65-.97-13-4C2.24,16.77,3.7,6.72,2.85,6.74Z"/>
      <path class="cls-1" d="M142.01,6.38c1.11.03,6.82,17.1-2,29-9.36,12.64-28.09,10.03-34.93,9-3.89-.58-19.09-2.68-27.95-15-2.33-3.25-6.4-8.9-4.99-16,1.11-5.58,5.13-11.17,10.98-13,6.34-1.99,12.75,4.02,21.96,12,9.84,8.53,11.52,13.14,17.97,14,4.63.62,9.63-.97,12.98-4,6.6-5.97,5.14-16.02,5.99-16Z"/>
    </g>
  </g>
</svg>